{"title":"Tyrannosaur.2011.LIMITED.720p.BluRay.X264-7SinS","uid":7018640,"size":3519962255,"categoryP":"video","categoryS":"hd___movies","magnet":"?xt=urn:btih:bd3524f6772725318abf49e7fce9d32e9ebf5b8f&amp;dn=Tyrannosaur.2011.LIMITED.720p.BluRay.X264-7SinS&amp;tr=udp%3A%2F%2Ftracker.openbittorrent.com%3A80&amp;tr=udp%3A%2F%2Fopen.demonii.com%3A1337&amp;tr=udp%3A%2F%2Ftracker.coppersurfer.tk%3A6969&amp;tr=udp%3A%2F%2Fexodus.desync.com%3A6969","seeders":1,"leechers":0,"uploader":"mfccorrea","files":3,"time":1328750153,"description":"Respected actor Paddy Considine moves to the director's chair for the first time with this emotionally powerful drama. Joseph (Peter Mullan) is a short-tempered alcoholic with a violent streak and just enough sense to know his life has gone terribly wrong. After getting in a fight with three men during a drunken bender, Joseph stumbles into a thrift shop run by Hannah (Olivia Colman). Joseph tosses random insults at Hannah for her strong religious convictions and desire to help others, but as he gets to know her better, Joseph develops a grudging admiration for Hannah. His feelings grow stronger when he learns just how dysfunctional Hannah's home life is -- she's married to James (Eddie Marsan), who has been subjecting her to humiliating physical and emotional abuse for years. Eventually, Hannah works up the courage to leave James, and Joseph takes her in. Tyrannosaur was an official selection at the 2011 Sundance Film Festival.\n\n   General\n      Complete name : 7s-tyrannosaur.720p.mkv\n      Format : Matroska\n      File size : 3.28 GiB\n      Duration : 1h 32mn\n      Overall bit rate : 5 079 Kbps\n      Encoded date : UTC 2012-02-04 14:09:05\n      Writing application : mkvmerge v4.9.1 ('Ich will') built on Jul 11 2011 23:53:15\n      Writing library : libebml v1.2.1 + libmatroska v1.1.1\n   Video #1\n      ID : 1\n      Format : AVC\n      Format/Info : Advanced Video Codec\n      Format profile : &lt;a class=&quot;__cf_email__&quot; href=&quot;/cdn-cgi/l/email-protection&quot; data-cfemail=&quot;246c4d434c6468100a15&quot;&gt;[email&amp;#160;protected]&lt;/a&gt;&lt;script cf-hash='f9e31' type=&quot;text/javascript&quot;&gt;\n/* &lt;![CDATA[ */!function(){try{var t=&quot;currentScript&quot;in document?document.currentScript:function(){for(var t=document.getElementsByTagName(&quot;script&quot;),e=t.length;e--;)if(t[e].getAttribute(&quot;cf-hash&quot;))return t[e]}();if(t&amp;&amp;t.previousSibling){var e,r,n,i,c=t.previousSibling,a=c.getAttribute(&quot;data-cfemail&quot;);if(a){for(e=&quot;&quot;,r=parseInt(a.substr(0,2),16),n=2;a.length-n;n+=2)i=parseInt(a.substr(n,2),16)^r,e+=String.fromCharCode(i);e=document.createTextNode(e),c.parentNode.replaceChild(e,c)}}}catch(u){}}();/* ]]&gt; */&lt;/script&gt;\n      Format settings, CABAC : Yes\n      Format settings, ReFrames : 5 frames\n      Muxing mode : Container profile=&lt;a class=&quot;__cf_email__&quot; href=&quot;/cdn-cgi/l/email-protection&quot; data-cfemail=&quot;1d48737673726a735d29332c&quot;&gt;[email&amp;#160;protected]&lt;/a&gt;&lt;script cf-hash='f9e31' type=&quot;text/javascript&quot;&gt;\n/* &lt;![CDATA[ */!function(){try{var t=&quot;currentScript&quot;in document?document.currentScript:function(){for(var t=document.getElementsByTagName(&quot;script&quot;),e=t.length;e--;)if(t[e].getAttribute(&quot;cf-hash&quot;))return t[e]}();if(t&amp;&amp;t.previousSibling){var e,r,n,i,c=t.previousSibling,a=c.getAttribute(&quot;data-cfemail&quot;);if(a){for(e=&quot;&quot;,r=parseInt(a.substr(0,2),16),n=2;a.length-n;n+=2)i=parseInt(a.substr(n,2),16)^r,e+=String.fromCharCode(i);e=document.createTextNode(e),c.parentNode.replaceChild(e,c)}}}catch(u){}}();/* ]]&gt; */&lt;/script&gt;\n      Codec ID : V_MPEG4/ISO/AVC\n      Duration : 1h 32mn\n      Bit rate : 4 223 Kbps\n      Nominal bit rate : 4 312 Kbps\n      Width : 1 280 pixels\n      Height : 536 pixels\n      Display aspect ratio : 2.35:1\n      Frame rate : 23.976 fps\n      Resolution : 24 bits\n      Colorimetry : 4:2:0\n      Scan type : Progressive\n      Bits/(Pixel*Frame) : 0.257\n      Stream size : 2.72 GiB (83%)\n      Writing library : x264 core 120 r2146 bcd41db\n   Audio #2\n      ID : 2\n      Format : DTS\n      Format/Info : Digital Theater Systems\n      Codec ID : A_DTS\n      Duration : 1h 32mn\n      Bit rate mode : Constant\n      Bit rate : 755 Kbps\n      Channel(s) : 6 channels\n      Channel positions : Front: L C R, Surround: L R, LFE\n      Sampling rate : 48.0 KHz\n      Resolution : 24 bits\n      Stream size : 498 MiB (15%)\n &lt;a href=&quot;\nhttp://www.imdb.com/title/tt1204340/&quot; rel=&quot;nofollow&quot; target=&quot;_NEW&quot;&gt;\nhttp://www.imdb.com/title/tt1204340/&lt;/a&gt;\n\nLanguage: English\nSubtitles: English (idx/sub)\n","torrent":{"xt":"urn:btih:bd3524f6772725318abf49e7fce9d32e9ebf5b8f","amp;dn":"Tyrannosaur.2011.LIMITED.720p.BluRay.X264-7SinS","amp;tr":["udp%3A%2F%2Ftracker.openbittorrent.com%3A80","udp%3A%2F%2Fopen.demonii.com%3A1337","udp%3A%2F%2Ftracker.coppersurfer.tk%3A6969","udp%3A%2F%2Fexodus.desync.com%3A6969"],"infoHash":"bd3524f6772725318abf49e7fce9d32e9ebf5b8f","infoHashBuffer":{"type":"Buffer","data":[189,53,36,246,119,39,37,49,138,191,73,231,252,233,211,46,158,191,91,143]},"announce":[],"urlList":[]}}